<svg xmlns="http://www.w3.org/2000/svg" viewBox="0 0 64 64" role="img" aria-label="Support Ticket Icon">
  <defs>
    <linearGradient id="bg" x1="0" y1="0" x2="1" y2="1">
      <stop offset="0" stop-color="#0ea5e9" />
      <stop offset="1" stop-color="#2563eb" />
    </linearGradient>
    <linearGradient id="ticket" x1="0" y1="0" x2="0" y2="1">
      <stop offset="0" stop-color="#ffffff" />
      <stop offset="1" stop-color="#eaf2ff" />
    </linearGradient>
  </defs>

  <rect x="4" y="4" width="56" height="56" rx="14" fill="url(#bg)" />

  <g transform="translate(32 32)">
    <rect x="-20" y="-14" width="40" height="28" rx="6" fill="url(#ticket)" />
    <rect x="-20" y="-14" width="40" height="28" rx="6" fill="none" stroke="#dbeafe" stroke-width="1.25" />

    <path d="M-12 -6 H-1 M-12 -1 H-3 M-12 4 H-5" stroke="#60a5fa" stroke-width="2" stroke-linecap="round" />

    <circle cx="10" cy="-1" r="6.5" fill="#1d4ed8" />
    <path
      d="M10 -4.6c1.7 0 2.8 1 2.8 2.4 0 1-.4 1.7-1.4 2.3-.9.6-1.3 1.2-1.3 2v.3"
      fill="none"
      stroke="#ffffff"
      stroke-width="1.8"
      stroke-linecap="round"
      stroke-linejoin="round"
    />
    <circle cx="10" cy="4.3" r="1.1" fill="#ffffff" />
  </g>
</svg>
