<svg xmlns="http://www.w3.org/2000/svg" viewBox="0 0 64 64" role="img" aria-label="Support Ticket Icon">
  <defs>
    <linearGradient id="bg" x1="0" y1="0" x2="1" y2="1">
      <stop offset="0" stop-color="#0ea5e9"/>
      <stop offset="1" stop-color="#2563eb"/>
    </linearGradient>
  </defs>
  <rect x="4" y="4" width="56" height="56" rx="14" fill="url(#bg)"/>
  <path
    d="M14 24c3.6 0 3.6-5 0-5v-3c0-1.7 1.3-3 3-3h30c1.7 0 3 1.3 3 3v3c-3.6 0-3.6 5 0 5v3c0 1.7-1.3 3-3 3H17c-1.7 0-3-1.3-3-3z"
    fill="#ffffff"
    opacity="0.96"
  />
  <rect x="23" y="18.5" width="2.5" height="19" rx="1.25" fill="#1d4ed8" opacity="0.2"/>
  <circle cx="34.5" cy="23.5" r="5.2" fill="#1d4ed8" opacity="0.95"/>
  <rect x="32.8" y="21.3" width="3.4" height="8.8" rx="1.7" fill="#ffffff"/>
  <circle cx="34.5" cy="31.7" r="1.65" fill="#ffffff"/>
</svg>
